<svg xmlns="http://www.w3.org/2000/svg" width="1024" height="1024" viewBox="0 0 1024 1024" fill="none" aria-labelledby="title desc" role="img">
  <title id="title">EXCELIST master icon</title>
  <desc id="desc">Production-quality EXCELIST vector rebuild with grouped symbol layers, outlined wordmark, and reusable gradients.</desc>
  <defs>
    <linearGradient id="bgGradient" x1="0" y1="0" x2="593" y2="560" gradientUnits="userSpaceOnUse">
      <stop offset="0" stop-color="#231F2B"/>
      <stop offset="1" stop-color="#241821"/>
    </linearGradient>
    <linearGradient id="kBodyGradient" x1="275.5" y1="375" x2="420" y2="153.5" gradientUnits="userSpaceOnUse">
      <stop offset="0" stop-color="#195BF0"/>
      <stop offset="0.52" stop-color="#2A82FF"/>
      <stop offset="1" stop-color="#60D7FF"/>
    </linearGradient>
    <linearGradient id="pixelGradient" x1="115.8" y1="132" x2="291.3" y2="247.9" gradientUnits="userSpaceOnUse">
      <stop offset="0" stop-color="#297DFF"/>
      <stop offset="1" stop-color="#76E3FF"/>
    </linearGradient>
    <linearGradient id="barGradient" x1="148.2" y1="342.9" x2="306.4" y2="165.6" gradientUnits="userSpaceOnUse">
      <stop offset="0" stop-color="#67D7F7"/>
      <stop offset="1" stop-color="#87EAFF"/>
    </linearGradient>
    <linearGradient id="arrowGradient" x1="59.1" y1="430.9" x2="500.3" y2="112.3" gradientUnits="userSpaceOnUse">
      <stop offset="0" stop-color="#4DBEF3"/>
      <stop offset="0.45" stop-color="#2F8FFF"/>
      <stop offset="1" stop-color="#2C83FF"/>
    </linearGradient>
    <linearGradient id="curveGradient" x1="97.3" y1="375.3" x2="423.3" y2="169.7" gradientUnits="userSpaceOnUse">
      <stop offset="0" stop-color="#3B9EFF"/>
      <stop offset="1" stop-color="#62D7FF"/>
    </linearGradient>
    <linearGradient id="wordGradient" x1="35.5" y1="441" x2="554" y2="441" gradientUnits="userSpaceOnUse">
      <stop offset="0" stop-color="#DDE5F0"/>
      <stop offset="0.5" stop-color="#F4F7FB"/>
      <stop offset="1" stop-color="#D5DCE7"/>
    </linearGradient>
    <linearGradient id="tagGradient" x1="62.5" y1="517" x2="522" y2="517" gradientUnits="userSpaceOnUse">
      <stop offset="0" stop-color="#67B4FF"/>
      <stop offset="1" stop-color="#58A8FF"/>
    </linearGradient>
  </defs>

  <g id="logo_lockup" transform="translate(0 28.0202) scale(1.7268128)">
    <rect x="0" y="0" width="593" height="560" fill="url(#bgGradient)"/>

    <g id="k_body">
      <path d="M275.5 153.5H307.5V229.5L418 375H353L307.5 317.5V375H275.5V153.5Z" fill="url(#kBodyGradient)"/>
    </g>

    <g id="pixel_cluster">
      <path d="M115.8 132H141.3V157.5L115.8 132Z" fill="url(#pixelGradient)"/>
      <rect x="145.4" y="132" width="25.5" height="25.5" fill="url(#pixelGradient)"/>
      <rect x="175.5" y="132" width="25.5" height="25.5" fill="url(#pixelGradient)"/>
      <path d="M205.6 132H231.1V157.5L205.6 132Z" fill="url(#pixelGradient)"/>
      <path d="M145.4 162.1H170.8V187.6L145.4 162.1Z" fill="url(#pixelGradient)"/>
      <rect x="175.5" y="162.1" width="25.5" height="25.5" fill="url(#pixelGradient)"/>
      <rect x="205.6" y="162.1" width="25.5" height="25.5" fill="url(#pixelGradient)"/>
      <path d="M235.7 162.1H261.2V187.6L235.7 162.1Z" fill="url(#pixelGradient)"/>
      <path d="M175.5 192.3H200.9V217.7L175.5 192.3Z" fill="url(#pixelGradient)"/>
      <rect x="205.6" y="192.3" width="25.5" height="25.5" fill="url(#pixelGradient)"/>
      <rect x="235.7" y="192.3" width="25.5" height="25.5" fill="url(#pixelGradient)"/>
      <path d="M265.8 192.3H291.3V217.7L265.8 192.3Z" fill="url(#pixelGradient)"/>
      <path d="M205.6 222.4H231.1V247.9L205.6 222.4Z" fill="url(#pixelGradient)"/>
      <rect x="235.7" y="222.4" width="25.5" height="25.5" fill="url(#pixelGradient)"/>
      <rect x="265.8" y="222.4" width="25.5" height="25.5" fill="url(#pixelGradient)"/>
    </g>

    <g id="chart_bars">
      <rect x="148.2" y="289" width="31.3" height="53.9" rx="1.5" fill="url(#barGradient)"/>
      <rect x="190.5" y="247.9" width="31.3" height="95" rx="1.5" fill="url(#barGradient)"/>
      <rect x="232.8" y="206.7" width="31.3" height="136.1" rx="1.5" fill="url(#barGradient)"/>
      <rect x="275.1" y="165.6" width="31.3" height="177.2" rx="1.5" fill="url(#barGradient)"/>
    </g>

    <g id="growth_curve">
      <path d="M97.3 375.3C180.1 366.6 243.8 339.9 300 294.2C341.7 260 375.3 220.6 423.3 169.7" stroke="url(#curveGradient)" stroke-width="13.9" stroke-linecap="round"/>
    </g>

    <g id="arrow">
      <path d="M59.1 369.5C147.1 367.7 216 349.2 275.1 305.2C320.2 272.2 360.8 225.3 418.7 162.7L394.9 154.6C387.4 151.7 386.3 141.9 393.2 139L500.3 112.3C508.5 110.6 514.8 118.1 512.5 126.2L486.4 233.4C484.1 242.1 472.5 243.8 467.3 236.9L454 220.6C400.2 282.6 356.1 334.1 298.8 370.6C236.9 410 162.7 433.2 64.9 430.9C53.9 430.3 49.2 416.4 59.6 413.5C70.7 410.6 75.3 374.1 59.1 369.5Z" fill="url(#arrowGradient)"/>
    </g>

    <g id="wordmark">
      <path fill="url(#wordGradient)" fill-rule="evenodd" d="M 227.0 475.5 L 208.0 475.5 L 193.0 469.5 L 184.5 462.0 L 177.5 450.0 L 176.5 438.0 L 181.5 425.0 L 190.0 415.5 L 207.0 407.5 L 228.0 407.5 L 238.0 411.5 L 247.5 419.0 L 236.0 429.5 L 228.0 423.5 L 215.0 421.5 L 206.0 424.5 L 197.5 433.0 L 197.5 451.0 L 206.0 459.5 L 218.0 462.5 L 227.0 460.5 L 238.0 454.5 L 247.5 463.0 L 240.0 470.5 Z M 462.0 475.5 L 438.0 474.5 L 422.5 466.0 L 430.0 455.5 L 448.0 462.5 L 458.0 462.5 L 466.5 458.0 L 465.5 453.0 L 462.0 450.5 L 435.0 444.5 L 428.0 440.5 L 423.5 435.0 L 422.5 424.0 L 424.5 419.0 L 429.0 413.5 L 438.0 408.5 L 459.0 406.5 L 474.0 410.5 L 480.5 415.0 L 474.0 426.5 L 455.0 420.5 L 445.0 421.5 L 440.5 425.0 L 441.5 430.0 L 444.0 431.5 L 468.0 436.5 L 477.0 440.5 L 483.5 449.0 L 483.5 460.0 L 478.5 468.0 L 470.0 473.5 Z M 90.0 474.5 L 35.5 474.0 L 36.0 407.5 L 90.5 408.0 L 90.5 421.0 L 89.0 422.5 L 53.0 421.5 L 51.5 423.0 L 51.5 434.0 L 53.0 435.5 L 84.0 434.5 L 85.5 436.0 L 85.0 448.5 L 52.0 448.5 L 51.5 461.0 L 90.0 461.5 Z M 174.0 474.5 L 153.0 474.5 L 137.0 452.5 L 121.5 472.0 L 122.0 474.5 L 100.0 474.5 L 125.5 442.0 L 100.5 408.0 L 123.0 407.5 L 138.0 428.5 L 153.0 407.5 L 173.0 407.5 L 149.5 437.0 L 148.5 441.0 L 174.5 473.0 Z M 316.0 474.5 L 259.5 474.0 L 260.0 407.5 L 314.5 408.0 L 314.0 421.5 L 284.0 421.5 L 277.5 423.0 L 278.0 435.5 L 314.0 434.5 L 314.5 448.0 L 278.0 448.5 L 277.5 461.0 L 317.0 461.5 L 317.5 473.0 Z M 382.0 474.5 L 330.5 474.0 L 331.0 407.5 L 347.5 408.0 L 347.5 461.0 L 382.0 461.5 Z M 409.0 474.5 L 391.5 474.0 L 392.0 407.5 L 409.5 408.0 Z M 529.0 474.5 L 511.5 474.0 L 511.5 423.0 L 510.0 421.5 L 490.0 422.5 L 490.0 407.5 L 553.5 408.0 L 554.0 421.5 L 532.0 421.5 L 529.5 423.0 Z"/>
    </g>

    <g id="tagline">
      <path fill="url(#tagGradient)" fill-rule="evenodd" d="M 85.0 527.5 L 81.0 527.5 L 78.0 522.5 L 70.0 522.5 L 67.0 527.5 L 62.5 527.0 L 72.0 506.5 L 76.0 505.5 L 79.5 510.0 Z M 113.0 527.5 L 109.0 527.5 L 97.0 512.5 L 95.5 513.0 L 96.5 527.0 L 91.5 527.0 L 93.0 505.5 L 98.5 507.0 L 107.0 519.5 L 108.5 519.0 L 108.5 507.0 L 110.0 505.5 L 113.5 507.0 Z M 142.0 527.5 L 139.0 527.5 L 136.0 522.5 L 126.0 522.5 L 124.0 527.5 L 120.5 527.0 L 128.0 506.5 L 133.0 505.5 L 134.5 507.0 L 141.5 523.0 Z M 163.0 527.5 L 148.5 527.0 L 147.5 507.0 L 149.0 505.5 L 153.5 507.0 L 152.5 523.0 L 154.0 524.5 L 163.0 524.5 Z M 179.0 527.5 L 174.5 527.0 L 174.5 519.0 L 166.5 508.0 L 167.0 505.5 L 171.5 507.0 L 177.0 515.5 L 185.0 505.5 L 188.5 506.0 L 179.5 519.0 Z M 209.0 527.5 L 190.5 527.0 L 191.5 523.0 L 202.5 511.0 L 202.0 509.5 L 193.0 509.5 L 193.0 506.5 L 208.0 505.5 L 209.5 507.0 L 206.5 513.0 L 197.5 523.0 L 200.0 524.5 L 208.0 523.5 L 209.5 525.0 Z M 234.0 527.5 L 219.0 527.5 L 217.5 526.0 L 217.5 508.0 L 219.0 505.5 L 232.0 505.5 L 234.5 507.0 L 234.0 509.5 L 222.5 510.0 L 223.0 514.5 L 232.5 515.0 L 232.0 518.5 L 223.0 518.5 L 222.5 523.0 L 224.0 524.5 L 234.0 523.5 Z M 305.0 527.5 L 302.0 527.5 L 300.0 522.5 L 291.0 522.5 L 288.0 527.5 L 284.5 527.0 L 291.5 508.0 L 294.0 505.5 L 298.5 508.0 L 305.5 524.0 Z M 323.0 528.5 L 314.0 525.5 L 310.5 519.0 L 311.5 512.0 L 313.5 509.0 L 320.0 505.5 L 326.0 505.5 L 330.5 508.0 L 329.0 510.5 L 319.0 509.5 L 315.5 514.0 L 315.5 520.0 L 317.0 522.5 L 320.0 524.5 L 329.0 522.5 L 331.5 525.0 Z M 348.0 528.5 L 338.0 524.5 L 335.5 519.0 L 336.5 511.0 L 344.0 505.5 L 350.0 505.5 L 355.5 508.0 L 355.0 511.5 L 350.0 509.5 L 344.0 509.5 L 340.5 514.0 L 340.5 519.0 L 345.0 524.5 L 355.5 523.0 L 353.0 527.5 Z M 378.0 527.5 L 362.5 527.0 L 363.0 505.5 L 377.0 505.5 L 378.5 507.0 L 377.0 509.5 L 368.0 509.5 L 366.5 511.0 L 367.0 514.5 L 375.0 514.5 L 376.5 516.0 L 375.0 518.5 L 367.0 518.5 L 366.5 523.0 L 368.0 524.5 L 378.0 524.5 Z M 400.0 527.5 L 385.5 527.0 L 386.0 505.5 L 389.5 506.0 L 389.5 523.0 L 391.0 524.5 L 400.0 524.5 Z M 423.0 527.5 L 406.5 527.0 L 407.0 505.5 L 421.0 505.5 L 422.5 507.0 L 422.0 509.5 L 412.0 509.5 L 410.5 511.0 L 411.0 514.5 L 420.0 514.5 L 421.5 516.0 L 420.0 518.5 L 411.0 518.5 L 410.5 523.0 L 412.0 524.5 L 423.0 524.5 Z M 449.0 527.5 L 444.0 527.5 L 438.0 519.5 L 434.5 520.0 L 434.0 527.5 L 429.5 527.0 L 429.5 507.0 L 431.0 505.5 L 443.0 505.5 L 448.5 510.0 L 448.5 515.0 L 444.5 520.0 Z M 476.0 527.5 L 472.0 527.5 L 470.0 522.5 L 461.0 522.5 L 458.0 527.5 L 454.5 527.0 L 464.0 505.5 L 468.5 507.0 L 475.5 522.0 Z M 492.0 527.5 L 488.5 527.0 L 488.5 510.0 L 480.0 509.5 L 478.5 508.0 L 480.0 505.5 L 499.5 506.0 L 499.0 509.5 L 494.0 509.5 L 492.5 511.0 Z M 522.0 527.5 L 505.5 527.0 L 505.5 507.0 L 507.0 505.5 L 521.5 506.0 L 521.0 509.5 L 510.5 510.0 L 511.0 514.5 L 520.5 515.0 L 520.0 518.5 L 511.0 518.5 L 510.5 524.0 L 522.0 523.5 Z M 440.5 516.0 L 444.5 514.0 L 444.5 511.0 L 443.0 509.5 L 435.0 509.5 L 434.5 516.0 Z M 134.5 519.0 L 131.0 510.5 L 127.5 518.0 Z M 77.5 519.0 L 75.5 512.0 L 74.0 511.5 L 70.5 519.0 Z M 298.5 518.0 L 296.5 512.0 L 295.0 511.5 L 292.5 518.0 Z M 468.5 519.0 L 466.5 512.0 L 465.0 511.5 L 462.5 518.0 Z M 262.0 521.5 L 258.5 519.0 L 258.5 515.0 L 260.0 513.5 L 264.0 513.5 L 265.5 515.0 L 265.5 519.0 Z"/>
    </g>
  </g>
</svg>
